<?xml version="1.0" encoding="UTF-8"?>
<svg width="192px" height="59px" viewBox="0 0 192 59" version="1.1" xmlns="http://www.w3.org/2000/svg" xmlns:xlink="http://www.w3.org/1999/xlink">
    <!-- Generator: sketchtool 62 (101010) - https://sketch.com -->
    <title>AEB80B43-2214-4F95-9D0A-2EB77B9D46C4@2x</title>
    <desc>Created with sketchtool.</desc>
    <defs>
        <polygon id="path-1" points="0.251241667 0.37389375 6.95391667 0.37389375 6.95391667 26.7641438 0.251241667 26.7641438"></polygon>
        <polygon id="path-3" points="8.84344877e-05 0.337301887 58.7326212 0.337301887 58.7326212 58.9997774 8.84344877e-05 58.9997774"></polygon>
    </defs>
    <g id="Homepage" stroke="none" stroke-width="1" fill="none" fill-rule="evenodd">
        <g transform="translate(-130.000000, -3958.000000)" id="Footer">
            <g transform="translate(0.000000, 3775.000000)">
                <g id="footer_qaroni_logo" transform="translate(130.000000, 183.000000)">
                    <g id="Group-3" transform="translate(185.000000, 11.000000)">
                        <mask id="mask-2" fill="white">
                            <use xlink:href="#path-1"></use>
                        </mask>
                        <g id="Clip-2"></g>
                        <path d="M1.82099167,4.44526875 L2.13249167,1.91908125 C2.530325,0.88914375 3.19824167,0.37389375 4.13740833,0.37389375 L5.51524167,0.37389375 C6.18840833,0.37389375 6.627075,0.56176875 6.831825,0.93808125 C6.91290833,1.08151875 6.954325,1.23395625 6.954325,1.39483125 C6.954325,1.64570625 6.86099167,1.91008125 6.67490833,2.18795625 L5.16990833,4.72708125 C4.65890833,5.56970625 4.087825,5.99045625 3.456075,5.99045625 L2.801575,5.99045625 C2.113825,5.99045625 1.77024167,5.69964375 1.77024167,5.11689375 C1.77024167,4.92901875 1.78715833,4.70514375 1.82099167,4.44526875 M0.251241667,25.5277687 L0.251241667,8.77201875 C0.251241667,8.42270625 0.385408333,8.11839375 0.655491667,7.85795625 C0.906325,7.61664375 1.212575,7.49514375 1.574825,7.49514375 L4.166575,7.49514375 C4.54749167,7.49514375 4.86365833,7.61664375 5.11449167,7.85795625 C5.38340833,8.11839375 5.51349167,8.42270625 5.50474167,8.77201875 L5.50474167,25.5013312 C5.50474167,25.8326437 5.372325,26.1257062 5.10749167,26.3816437 C4.84265833,26.6364562 4.52940833,26.7641437 4.166575,26.7641437 L1.574825,26.7641437 C1.212575,26.7641437 0.906325,26.6432062 0.655491667,26.4013312 C0.385408333,26.1510187 0.251241667,25.8596437 0.251241667,25.5277687" id="Fill-1" fill="#FFFFFF" mask="url(#mask-2)"></path>
                    </g>
                    <path d="M73.6115043,24.0140013 C72.6694775,25.0370907 72.1984641,26.5323336 72.1984641,28.4997302 C72.1984641,30.468206 72.6694775,31.9634489 73.6115043,32.9854591 C74.5541083,34.0085485 76.0502685,34.5195535 78.0999849,34.5195535 C82.0343322,34.5195535 84.0015058,32.4231916 84.0015058,28.2293885 C84.0015058,26.2787197 83.5368418,24.8325807 82.6092456,23.8915112 C81.6804949,22.9504416 80.177408,22.4804465 78.0999849,22.4804465 C76.0502685,22.4804465 74.5541083,22.9914515 73.6115043,24.0140013 M69.8266576,35.7056034 C67.942604,34.1763653 67,31.7740479 67,28.4997302 C67,25.2259521 67.942604,22.8241743 69.8266576,21.2943966 C71.7112885,19.764619 74.4686794,19 78.0999849,19 C81.7676555,19 84.5348592,19.7263071 86.4010189,21.1783818 C88.2671786,22.630996 89.1999699,24.9809719 89.1999699,28.2293885 C89.1999699,29.0544432 89.1105004,29.8260771 88.9309843,30.5432109 C88.7514682,31.2608844 88.4830598,31.8922212 88.1246047,32.4377609 C87.7655725,32.9838403 87.4879285,33.3788305 87.2899413,33.6238107 C87.091954,33.868791 86.8281634,34.1671921 86.497415,34.5195535 L88.6897054,34.5195535 C89.0666315,34.5195535 89.3789088,34.6377268 89.6276916,34.8740734 C89.8758972,35.11042 90,35.3964102 90,35.7315044 L90,36.7885888 C90,37.1236829 89.8758972,37.4091335 89.6276916,37.6454801 C89.3789088,37.8818267 89.0666315,38 88.6897054,38 L78.0999849,38 C74.4686794,38 71.7112885,37.235381 69.8266576,35.7056034" id="Fill-4" fill="#FFFFFF"></path>
                    <path d="M99.2668438,29.6661801 L107.872272,29.6661801 L107.872272,22.7495256 L104.009679,22.7495256 C103.142532,22.7495256 102.385842,22.9908043 101.739609,23.4733616 C101.093946,23.9564735 100.65724,24.6048752 100.431771,25.419676 L99.2668438,29.6661801 Z M92.05409,36.7814042 L95.4680205,24.1672457 C96.3926741,20.7311049 99.4029228,19.0088746 104.498766,19 L111.830518,19 C112.165307,19 112.444866,19.12369 112.66692,19.3705153 C112.888973,19.6184499 113,19.9052109 113,20.2324624 L113,36.7814042 C113,37.1258502 112.872462,37.4153846 112.619093,37.6494526 C112.365155,37.8835207 112.061682,38 111.708104,38 L109.150503,38 C108.779275,38 108.472955,37.8835207 108.232682,37.6494526 C107.992408,37.4153846 107.872272,37.1175303 107.872272,36.7547803 L107.872272,33.4157057 L98.2379958,33.4157057 L97.3201746,36.761991 C97.2285064,37.1219676 97.0235339,37.4187126 96.7046878,37.6511166 C96.3852723,37.8840753 96.0482065,38 95.6929209,38 L92.9981021,38 C92.6422471,38 92.3740748,37.881302 92.1913076,37.642242 C92.0637692,37.4836082 92,37.3027879 92,37.0992264 C92.0085405,37.0021603 92.0267603,36.8962195 92.05409,36.7814042 L92.05409,36.7814042 Z" id="Fill-6" fill="#FFFFFF"></path>
                    <path d="M121.060403,27.3075082 L126.778783,27.3075082 C127.691296,27.3075082 128.500983,27.1266931 129.207844,26.7645084 C129.914705,26.4023237 130.268697,25.8232718 130.268697,25.0284622 C130.268697,24.2336525 129.916952,23.6557099 129.215149,23.2929706 C128.512221,22.9307858 127.699725,22.7494162 126.778783,22.7494162 L121.060403,22.7494162 L121.060403,27.3075082 Z M116,36.7548167 L116,20.2590495 C116,19.9146135 116.120807,19.6184318 116.362421,19.3710591 C116.604034,19.124241 116.89959,19 117.248525,19 L128.322302,19 C130.370961,19 132.051582,19.5435544 133.362477,20.6295539 C134.673372,21.7161081 135.3291,23.1825957 135.3291,25.0284622 C135.3291,27.5992527 133.642299,29.2110579 130.268697,29.8644325 C130.796314,30.0685427 131.290217,30.4035497 131.751531,30.8716721 C132.212845,31.3403491 132.738214,32.0242293 133.328763,32.9249766 L135.771872,36.7548167 C135.923583,37.0110638 136,37.2318134 136,37.4170656 C136,37.4963802 135.985953,37.5718122 135.959544,37.6422525 C135.869641,37.8807508 135.651065,38 135.30213,38 L132.080238,38 C131.731303,38 131.355397,37.8785322 130.95252,37.6355967 C130.550767,37.3926611 130.241726,37.0992527 130.026521,36.7548167 L127.744676,33.2300327 C126.814182,31.7812938 125.678036,31.057479 124.335675,31.057479 L121.060403,31.057479 L121.060403,36.7548167 C121.060403,37.0992527 120.937349,37.3926611 120.69124,37.6355967 C120.445131,37.8785322 120.14789,38 119.798955,38 L117.275496,38 C116.926561,38 116.625948,37.8785322 116.375906,37.6355967 C116.125302,37.3926611 116,37.0992527 116,36.7548167 L116,36.7548167 Z" id="Fill-8" fill="#FFFFFF"></path>
                    <path d="M143.538794,24.2188279 C142.613833,25.2901464 142.151638,26.8862039 142.151638,29.0064402 C142.151638,31.1266766 142.613833,32.7204939 143.538794,33.7873323 C144.463183,34.8541708 145.95273,35.3873099 148.006864,35.3873099 C150.060998,35.3873099 151.548258,34.8541708 152.468071,33.7873323 C153.388456,32.7204939 153.848362,31.1266766 153.848362,29.0064402 C153.848362,26.8862039 153.388456,25.2901464 152.468071,24.2188279 C151.548258,23.1475093 150.060998,22.61157 148.006864,22.61157 C145.95273,22.61157 144.463183,23.1475093 143.538794,24.2188279 M139.801196,36.6047938 C137.933541,35.0076163 137,32.472965 137,28.99972 C137,25.527035 137.933541,22.9918237 139.801196,21.3952062 C141.668279,19.7980287 144.404264,19 148.006864,19 C151.609464,19 154.34259,19.7980287 156.205668,21.3952062 C158.068175,22.9918237 159,25.527035 159,28.99972 C159,32.472965 158.068175,35.0076163 156.205668,36.6047938 C154.34259,38.2014113 151.609464,39 148.006864,39 C144.404264,39 141.668279,38.2014113 139.801196,36.6047938" id="Fill-10" fill="#FFFFFF"></path>
                    <path d="M162,36.7548167 L162,20.2590495 C162,19.9146135 162.12226,19.6184318 162.366781,19.3710591 C162.611302,19.124241 162.910474,19 163.263733,19 L167.259451,19 C167.576089,19 167.911882,19.124241 168.265142,19.3710591 C168.618401,19.6184318 168.908558,19.9146135 169.134486,20.2590495 L177.342836,32.5677837 L177.342836,20.2324264 C177.342836,19.8879904 177.461716,19.5962459 177.698913,19.3577475 C177.936109,19.1198038 178.222886,19 178.559243,19 L180.784157,19 C181.120514,19 181.406727,19.1198038 181.643924,19.3577475 C181.88112,19.5962459 182,19.8968648 182,20.2590495 L182,36.7548167 C182,37.0992527 181.878303,37.3926611 181.634909,37.6355967 C181.391515,37.8785322 181.097414,38 180.751479,38 L176.34278,38 C175.997972,38 175.643586,37.8785322 175.280185,37.6355967 C174.917911,37.3926611 174.630007,37.0992527 174.417601,36.7548167 L167.074089,25.3862097 L167.074089,36.7548167 C167.074089,37.0992527 166.946194,37.3926611 166.691532,37.6355967 C166.43687,37.8785322 166.128683,38 165.767536,38 L163.320638,38 C162.958927,38 162.648487,37.8785322 162.388754,37.6355967 C162.129585,37.3926611 162,37.0992527 162,36.7548167" id="Fill-12" fill="#FFFFFF"></path>
                    <path d="M12.3668654,24.5815462 C12.1672615,24.6370318 11.7911064,24.7156363 11.4166381,24.838167 L11.1540605,24.9329549 L11.4481249,24.8069564 L11.1107661,24.9514501 L11.0326114,24.9843947 L11.4683665,24.7849933 L11.0016868,24.9988441 L11,25 C11.2513323,24.8728455 11.5993741,24.7254619 11.8445215,24.6254723 C11.1236982,24.9057901 11.5470835,24.7208381 12.2386691,24.3075861 C12.1222803,24.3688514 11.8883782,24.493116 11.8906272,24.4809785 C11.9018725,24.4156674 12.4691976,24.1786977 12.5945826,24.1156984 C12.5928958,24.0451855 11.8911895,24.4636393 11.7927932,24.4879142 C12.0199481,24.354402 12.2459785,24.1891012 12.4770693,24.07813 C12.5895222,23.9278565 11.9074952,24.4081537 11.9142424,24.3700074 C12.1363369,24.2289815 12.2482276,24.1596245 12.476507,24.0284242 C12.1374614,24.1833215 12.3629296,23.9648469 12.1442086,24.0631027 C11.82428,24.1781197 11.4638684,24.5006297 12.0407519,23.8683251 C12.1346501,23.7411707 12.4320881,23.4701004 12.7492054,23.2198373 C12.6153864,23.2868824 12.4680731,23.3753125 12.3134503,23.4753022 L13.1090548,22.5320471 C13.7084289,21.8696879 14.7143204,21.0784403 15.6100081,20.5571069 L15.7545101,20.4640529 C16.5759788,19.9866457 18.6439882,18.9347313 20.6428392,18.1330801 C22.6433769,17.3100439 24.4870427,16.6315013 24.9261715,16.3696787 C25.2938925,16.2407903 25.7234628,16.10959 26.1029914,16.0038206 L27.2466378,15.694026 C28.0135668,15.4975146 28.7990505,15.3339477 29.5997154,15.2091051 C31.2021697,14.9680895 32.8928996,14.9045123 34.6117427,15.1842522 C34.363784,15.1692248 35.2026829,15.2634347 34.9530374,15.2403157 C34.7989769,15.2368479 34.0922102,15.1322344 33.6468965,15.1432159 C32.5054993,15.1686468 32.275533,15.4761295 32.2412349,15.6443202 C32.2299896,15.7044296 31.6278041,15.833896 31.2319698,15.9350416 C31.6086871,16.085893 30.2665613,16.684675 30.4970898,16.9765523 C29.9449459,17.2013846 29.1948849,17.4406662 28.6489259,17.7204061 C28.2890765,17.9267431 27.9432837,18.1983913 27.601989,18.4787091 C27.1606113,18.7555591 26.7692751,19.0040883 26.3650068,19.2913418 C25.944995,19.5722377 25.5227343,19.8456198 25.1055339,20.1045525 C24.2705708,20.624152 23.444604,21.0998253 22.6186372,21.5333065 C22.4786333,21.5662511 22.3285087,21.6032415 22.1643274,21.6535253 C22.1705123,21.68358 22.1795085,21.7315519 22.1513953,21.7737441 L22.0040819,21.8483028 C21.6374854,21.9546502 21.2697643,22.0199614 21.0341754,22.1320885 C20.982447,22.167923 21.0088735,22.2072253 21.0459829,22.2482615 C20.4617899,22.4765616 19.8686007,22.6776968 19.2686643,22.8626488 L18.2262256,22.9649504 L18.2520898,23.0805453 C17.8815573,23.2458462 17.4491758,23.1181137 17.0808925,23.2874604 C16.967315,23.3464138 17.0825792,23.3857161 17.1112547,23.4469814 C15.569525,23.8290228 13.9755047,24.1197442 12.3668654,24.5815462" id="Fill-14" fill="#FFC056"></path>
                    <path d="M10.8779771,36.9014315 C10.6130068,37.0653064 10.1542769,37.3869867 9.62875248,37.6843892 L9.24233743,37.8874395 L9.70879559,37.6700432 L9.17609485,37.919442 L9.05299406,37.976274 L9.76234168,37.6617667 L9.00386415,37.9988965 L9,38 C9.4289207,37.8250898 9.97652601,37.5674145 10.3524526,37.3831243 C9.26221021,37.9310291 9.93788451,37.6198324 11.2257506,37.1723492 C11.0220547,37.2529072 10.6119027,37.4129197 10.6339836,37.4162303 C10.7521162,37.4416116 11.6364546,37.0206133 11.8528471,36.931227 C11.9682195,36.9709542 10.6632407,37.4261621 10.5379319,37.5089272 C10.9574682,37.3605018 11.4283425,37.2302848 11.8125495,37.0658582 C12.160323,37.037718 10.771437,37.4416116 10.8398876,37.4537505 C11.2671523,37.3147052 11.4796805,37.2429754 11.8948007,37.0934465 C11.3433312,37.3378794 11.902529,37.2374578 11.5508913,37.3963667 C11.080569,37.6446619 10.232664,37.8212274 11.7849484,37.6027276 C12.0780718,37.5806569 12.7863154,37.4388528 13.4796544,37.2667014 C13.2505655,37.3599501 12.9767628,37.4554058 12.674255,37.5508615 L14.9375431,37.2898756 C16.5566222,37.0664099 18.7481475,36.5201604 20.3893073,35.9325284 L20.6691822,35.840935 C22.1750969,35.3035138 25.7152107,33.8661603 28.780034,32.3620429 C31.8812907,30.8667539 34.6055167,29.4470569 35.4203005,29.1617933 C35.9524492,28.8743226 36.5420081,28.5289163 37.0471078,28.2182714 L38.5530224,27.2769566 C39.5422449,26.6380102 40.4928259,25.965406 41.3926209,25.2569369 C43.1789625,23.832274 44.7450474,22.2271833 45.7635271,20.4091104 C45.5758398,20.6579574 46.1427658,19.7922347 45.9650149,20.0477029 C45.83805,20.1977836 45.4030571,20.9399105 44.9989773,21.3664265 C43.9711133,22.4589255 43.2601096,22.5157575 42.9504256,22.457822 C42.8400213,22.4368548 42.1025206,22.9505501 41.5935568,23.2799551 C41.6664236,22.8335754 39.5085716,23.8107551 39.2204164,23.4289322 C38.3691992,23.8433094 37.3236705,24.441425 36.38413,24.8188338 C35.7288805,25.0566454 34.9764752,25.2453498 34.2135815,25.4241224 C33.3717487,25.7033166 32.6198954,25.9477494 31.7913112,26.1855611 C30.9605189,26.4410293 30.141319,26.7020152 29.34696,26.9663116 C27.7604503,27.4960081 26.2528796,28.038947 24.8170717,28.6050602 C24.6404248,28.7231384 24.4494254,28.8489413 24.2247527,28.9813654 C24.1783828,28.9592947 24.105516,28.9239816 24.0111203,28.9289475 L23.7588465,29.032128 C23.2669954,29.330634 22.8386267,29.6523143 22.4505556,29.8194997 C22.3440154,29.8503987 22.3026138,29.8029467 22.2661804,29.7450112 C21.3801859,30.1880802 20.5322809,30.6548753 19.7059047,31.136568 L18.6360871,32.0933323 L18.4644084,32.0044978 C17.8687772,32.2754155 17.707587,32.7626259 17.1080916,33.0291294 C16.9093639,33.1069286 16.9441412,32.9739527 16.8690663,32.9132583 C14.9011097,34.2021865 13.0374852,35.5909845 10.8779771,36.9014315" id="Fill-16" fill="#FFC056"></path>
                    <path d="M19.9445764,45.3001316 C19.8089477,45.3978249 19.5703912,45.5964146 19.307711,45.7688459 L19.1168659,45.8846899 L19.3414842,45.7667105 L19.0847009,45.9023067 L19.0246598,45.9332696 L19.3650718,45.7656429 L19.0010722,45.9450142 L19,45.9450142 C19.202639,45.8558623 19.4669274,45.7154616 19.6513396,45.6129637 C19.117938,45.9193897 19.4433398,45.7512291 20.0394629,45.5414287 C19.9440403,45.5820008 19.7515869,45.6626111 19.7596281,45.6668819 C19.8030508,45.6973109 20.2324524,45.4666907 20.334308,45.4218479 C20.373978,45.4629538 19.7703498,45.6770249 19.7054838,45.7266723 C19.8995455,45.656205 20.111834,45.6044222 20.295174,45.5184735 C20.4415243,45.5318196 19.811092,45.6983786 19.8368239,45.7149278 C20.0330299,45.6519343 20.1311329,45.6193698 20.3246585,45.547301 C20.0609062,45.6775587 20.3037513,45.6572727 20.1343494,45.7426876 C19.9022259,45.8836222 19.529649,45.9316681 20.1949267,45.9220589 C20.3171533,45.9348711 20.6286169,45.8975021 20.9374001,45.8371778 C20.8285755,45.8846899 20.7015241,45.9300665 20.563215,45.9717063 L21.5233377,46 C22.2170277,45.99306 23.1948412,45.7982073 23.958758,45.5174058 L24.0879537,45.4768337 C24.7875407,45.2195213 26.4617246,44.4844193 27.9541767,43.6505563 C29.4616391,42.8273702 30.8023801,42.0228685 31.1808539,41.8883401 C31.4446063,41.7244502 31.7410596,41.521056 31.9973067,41.3363462 L32.7649761,40.7731417 C33.2721096,40.3882408 33.7706658,39.9729108 34.2531396,39.5255503 C35.2154067,38.6238892 36.1181687,37.5636767 36.8359824,36.2867239 C36.7180444,36.4559522 37.0922295,35.8569801 36.9780441,36.0326145 C36.9013844,36.1340447 36.6001063,36.6534741 36.3653024,36.936411 C35.7664989,37.6619038 35.4684373,37.6336101 35.3521076,37.5588721 C35.3119014,37.5316461 34.9275307,37.8482151 34.6653866,38.0468047 C34.7704586,37.7152882 33.732604,38.2395221 33.680068,37.9213516 C33.2656766,38.1509042 32.7413885,38.4995037 32.2985848,38.6916873 C31.9930181,38.8059297 31.6568947,38.8737278 31.318627,38.9335182 C30.9305037,39.060039 30.5852669,39.1710784 30.2094735,39.2671702 C29.8299274,39.3776757 29.4546701,39.4935197 29.0901344,39.6147021 C28.3578464,39.8570669 27.6566512,40.1181162 26.9806519,40.4037223 C26.8889819,40.4752572 26.7908789,40.5515968 26.6766934,40.6295379 C26.6622192,40.6081842 26.6386316,40.5740182 26.6000337,40.5686798 L26.4804875,40.6209964 C26.2312094,40.7976985 26.0044467,40.9989574 25.8184263,41.0865076 C25.7701789,41.0998537 25.7616016,41.0598155 25.7562407,41.0117696 C25.3236226,41.2584051 24.9017261,41.5279959 24.4873348,41.8109328 L23.893356,42.4285893 L23.8386756,42.344776 C23.5518718,42.4899813 23.4055214,42.8439193 23.1176454,42.9859216 C23.0243672,43.0248921 23.0608207,42.9277327 23.0404496,42.8738145 C22.0272547,43.6532255 21.0403279,44.5207206 19.9445764,45.3001316" id="Fill-18" fill="#FFC056"></path>
                    <path d="M46.4621213,31.6043296 C46.5394149,31.5447385 46.6791787,31.4211008 46.8284718,31.3175125 L46.9354122,31.2490105 L46.8110013,31.3169555 L46.9534121,31.2389858 L46.9862354,31.2211642 L46.7993543,31.3163986 L46.9994706,31.214481 L47,31.214481 C46.8898831,31.2640475 46.743237,31.3448019 46.6410613,31.404393 C46.9380592,31.2245057 46.7591193,31.320854 46.4404156,31.4294547 C46.4922976,31.4071776 46.596591,31.3631804 46.5928851,31.3598389 C46.5743558,31.3353341 46.337181,31.4684395 46.2810637,31.4935012 C46.2662403,31.4623133 46.5886499,31.3520419 46.6267673,31.320854 C46.5224738,31.3576112 46.4107687,31.3804451 46.31124,31.4283408 C46.2397699,31.4094053 46.57065,31.3342202 46.5600618,31.320854 C46.455239,31.3520419 46.403357,31.3687497 46.299593,31.4066207 C46.4446508,31.3325495 46.3212987,31.3303218 46.4144746,31.2818692 C46.544709,31.1983302 46.7358253,31.1888624 46.4038864,31.1526622 C46.3440633,31.1353975 46.1857703,31.1409667 46.0264184,31.1632438 C46.0846533,31.1370683 46.152947,31.1136773 46.2260053,31.093628 L45.752185,31.0112029 C45.4070109,30.9705472 44.9003673,31.0429477 44.4906053,31.1894193 L44.4223117,31.2094687 C44.0474907,31.343688 43.1379675,31.7491305 42.3073261,32.2353274 C41.4713906,32.7131703 40.7191017,33.1887856 40.5173971,33.2578445 C40.3686335,33.3558635 40.2002817,33.4783874 40.0531062,33.5914435 L39.6121092,33.935624 C39.3188171,34.171204 39.0271132,34.4296179 38.7396446,34.7114227 C38.1657661,35.2794878 37.6045935,35.9628366 37.1122439,36.8104788 C37.1884787,36.6990935 36.9391274,37.0939544 37.0143034,36.9786706 C37.0635384,36.9129533 37.2684193,36.5687727 37.4150654,36.3861008 C37.7898863,35.9171686 37.9349442,35.9567104 37.9841791,36.0163015 C38.0016496,36.0380217 38.2261187,35.8419835 38.3775294,35.7200166 C38.2896476,35.945015 38.8614084,35.6453885 38.8539967,35.8720576 C39.0837599,35.7383952 39.3812873,35.5284339 39.6216386,35.4231748 C39.7862845,35.3630267 39.9604598,35.3374081 40.1346351,35.3179157 C40.3405748,35.254983 40.5242795,35.1998473 40.7206899,35.156407 C40.9213356,35.1046128 41.1198636,35.0478063 41.3141564,34.9865444 C41.7038008,34.8645775 42.0796806,34.7275736 42.4460311,34.5721911 C42.4989719,34.5281939 42.5556185,34.4808551 42.6207357,34.4340733 C42.6255004,34.4496672 42.633971,34.4752859 42.6525002,34.481969 L42.7176174,34.4530088 C42.8600282,34.344965 42.9939685,34.2190996 43.0961443,34.1700901 C43.1210265,34.1639639 43.1210265,34.1923672 43.1189088,34.2263397 C43.3597895,34.0820957 43.5980232,33.921144 43.8341392,33.7501675 L44.1951956,33.3564205 L44.2131955,33.4187962 C44.3709591,33.3358142 44.4816054,33.0974496 44.6398984,33.0172522 C44.6896628,32.996089 44.6616042,33.0612494 44.6658394,33.1007912 C45.2524237,32.6212774 45.8347727,32.078831 46.4621213,31.6043296" id="Fill-20" fill="#FFC056"></path>
                    <g id="Group-24">
                        <mask id="mask-4" fill="white">
                            <use xlink:href="#path-3"></use>
                        </mask>
                        <g id="Clip-23"></g>
                        <path d="M48.8537255,44.4646264 C45.9694047,48.2840415 41.9407066,51.2512962 37.4093953,52.8465226 C36.2928481,53.2389283 34.3180179,54.0549094 32.0960557,54.4523245 L30.5036123,54.819683 C31.140367,54.7935226 31.7732255,54.7423151 32.4016311,54.6660604 C31.6624613,54.7534472 30.9483387,54.8319283 30.2331028,54.8853623 L29.7321594,55.0078151 C30.6939708,54.9944566 31.6585651,54.9276642 32.6114708,54.8074377 C31.8389047,54.9154189 30.3822726,55.0651453 29.5312255,55.0645887 L29.5189802,55.0695981 C31.2271972,55.1263717 33.4842255,54.752334 35.0382632,54.3805226 C32.8079519,54.9861075 32.3359519,55.1035509 33.114084,55.1352774 C33.8794142,55.1397302 35.8948764,54.9349 38.3511689,54.0916453 C37.5669142,54.4000038 35.9427443,54.851966 36.0167726,54.8803528 C36.2060179,54.9721925 37.2190368,54.6950038 38.2532066,54.2736547 C39.2929425,53.8651075 40.3421406,53.3073906 40.7607066,53.132617 C40.9249047,53.1721358 39.8078009,53.7471075 38.5331783,54.2319094 C37.2624519,54.725617 35.8408858,55.1052208 35.5776123,55.2749849 C37.2329519,54.8836925 39.016867,54.371617 40.4868575,53.6263245 C41.0801972,53.4927396 40.1217255,53.9780981 38.9968292,54.3938811 C37.8774991,54.8230226 36.5973104,55.1542019 36.7136406,55.2048528 C38.3645274,54.7100321 39.1749425,54.4072396 40.7323198,53.6936736 C38.6161123,54.811334 40.6209991,54.2419283 39.25565,54.9877774 C38.3211123,55.5688717 37.069867,56.1182396 36.7475934,56.3542396 C36.4197538,56.5668623 37.0865651,56.6648245 39.8556689,55.7609 C40.8714708,55.4887208 43.3934425,54.3560321 45.6243104,52.7557962 C44.8539708,53.406466 43.9199896,54.111683 42.8463009,54.7851736 C45.3231877,53.6569377 47.6698292,52.1524377 49.7186877,50.3484849 C51.9311877,48.3680887 54.2561217,45.4871075 55.9025557,42.0706736 C57.572367,38.6703811 58.5185934,34.7786075 58.6822349,31.2441736 C58.7061689,30.8528811 58.7250934,30.4621453 58.731216,30.0675132 C58.7468009,28.4483528 58.6388198,26.2297302 58.100584,23.6437491 C57.5634613,21.063334 56.5676972,18.1211264 54.9179236,15.2167679 C53.2759425,12.3140792 50.9816217,9.45703208 48.108433,7.08144717 C45.2491594,4.69918302 41.8232632,2.81173962 38.1925368,1.67793774 C34.5618104,0.53244717 30.7579802,0.155626415 27.2146406,0.415560377 C23.6601689,0.672154717 20.3673009,1.57997547 17.6132255,2.78669245 C12.0583198,5.21571132 8.78437642,8.65051321 7.49695189,9.98580566 C3.79943302,14.1291642 1.32922547,19.2799755 0.422517925,24.6756925 C-0.497548113,30.0619472 0.0902254717,35.6691736 2.13797075,40.7192396 C4.16957453,45.7698623 7.63888585,50.2199094 12.0483009,53.4404189 C16.4443575,56.6759566 21.8061217,58.6468906 27.3198387,58.9997774 C26.5038575,58.8500509 27.4712349,58.8595132 28.4274802,58.8055226 C29.4076594,58.7509755 30.2731783,58.6496736 29.5173104,58.5739755 C29.0041217,58.5210981 27.627084,58.5389094 26.0190557,58.3708151 C24.4104708,58.2144094 22.5775745,57.8615226 21.1882915,57.3978717 C17.6460651,56.1583151 15.6745745,54.7083623 14.50515,53.7209472 C13.3401783,52.7068151 12.973933,52.0644943 12.8692915,51.6860038 C12.8370085,51.5563151 12.0098953,50.8995226 11.0102349,49.9755604 C10.0100179,49.0510415 8.85395189,47.8437679 8.02294245,46.798466 C8.87454623,47.3578528 7.74742358,45.7526075 6.83960283,43.8879849 C5.89949906,42.0294849 5.23936698,39.9205132 5.62898962,40.0752491 C4.85085755,38.3475509 4.14898019,36.2563906 3.75379151,34.0834094 C3.34969717,31.9143245 3.25952736,29.6728811 3.43040472,27.7308906 C3.67976321,25.1065038 4.42505566,22.4470509 5.57221604,20.0074566 C8.11088585,14.1497585 12.7162255,9.63570189 17.9928292,7.13710755 C23.2733292,4.6073434 29.2278764,4.10862642 34.6146877,5.4049566 C35.4401311,5.56080566 36.3256877,5.7734283 37.2969613,6.08846604 C37.3253481,6.13577736 37.3709896,6.20646604 37.5997538,6.32669245 L38.5198198,6.69627736 C40.618216,7.49723019 42.532933,8.56535283 43.7808387,9.51714528 C44.0719425,9.75648491 44.0001406,9.77318302 43.8865934,9.76427736 C46.8889142,12.0107302 49.3841689,14.9451453 51.1068575,18.2947868 C52.1259991,20.0670132 52.9102538,21.9377585 53.4306783,23.8085038 L53.3126783,24.0211264 C53.7601877,26.4540415 54.2689236,28.4511358 54.0557443,30.9703245 C53.9566689,31.7618151 53.8887632,31.2419472 53.7852349,31.2536358 C53.4818858,36.0031358 51.7536311,40.6518906 48.8537255,44.4646264" id="Fill-22" fill="#FFC056" mask="url(#mask-4)"></path>
                    </g>
                </g>
            </g>
        </g>
    </g>
</svg>